<svg width="32" height="32" viewBox="0 0 32 32" fill="none" xmlns="http://www.w3.org/2000/svg">
<rect width="32" height="32" fill="#831F82"/>
<path d="M21.2802 13.9347H17.5378C17.3668 13.9347 17.2259 14.0672 17.2272 14.228C17.2272 14.3889 17.368 14.5214 17.5391 14.5214H21.2815V17.4561H17.5378C17.3668 17.4561 17.2272 17.5874 17.2272 17.7494C17.2272 17.9115 17.3668 18.0428 17.5378 18.0428H21.2802V20.9763H14.4191V11.0012L17.5378 11V11.0012H21.2802V13.9347Z" fill="#C6A1CF"/>
<path d="M6.30804 20.9763H3.18936V11.0012H6.3093L6.30804 20.9763Z" fill="#C6A1CF"/>
<path fill-rule="evenodd" clip-rule="evenodd" d="M27.178 15.9893C27.178 15.9503 27.212 15.916 27.256 15.916C28.1463 15.916 28.7663 15.4003 28.765 14.5214V11.0012L21.9027 11L21.9014 20.9751H28.7638V17.4537C28.7638 16.5737 28.1463 16.0615 27.2547 16.0615C27.212 16.0615 27.178 16.0284 27.178 15.9893ZM25.3345 19.215C25.1622 19.215 25.0226 19.0825 25.0226 18.9216V16.8682C25.0226 16.7061 25.1622 16.5748 25.3345 16.5748C25.5068 16.5748 25.6464 16.7061 25.6464 16.8682V18.9216C25.6464 19.0825 25.5068 19.215 25.3345 19.215ZM25.6464 15.1069C25.6464 15.2666 25.5043 15.4003 25.3345 15.4003C25.1635 15.4003 25.0226 15.2678 25.0226 15.1069V13.0535C25.0226 12.8914 25.1622 12.7601 25.3345 12.7601C25.5068 12.7601 25.6464 12.8914 25.6464 13.0535V15.1069Z" fill="#C6A1CF"/>
<path fill-rule="evenodd" clip-rule="evenodd" d="M13.7941 11.0012V14.5214C13.7941 15.3991 13.1679 15.9148 12.2838 15.916C12.2373 15.916 12.2059 15.9526 12.2059 15.9893C12.2059 16.0319 12.2436 16.0626 12.2838 16.0626C13.1666 16.0626 13.7929 16.5796 13.7929 17.4549V20.9763H10.6742V16.8694C10.6742 16.7073 10.5346 16.5748 10.3623 16.5748C10.19 16.5748 10.0504 16.7061 10.0504 16.8682V20.9763H6.93177V11.0012H13.7941ZM10.3636 15.4014C10.5346 15.4014 10.6754 15.2678 10.6754 15.1081V13.0558C10.6754 12.8937 10.5359 12.7613 10.3636 12.7613C10.1913 12.7613 10.0517 12.8926 10.0517 13.0546V15.1081C10.0517 15.2678 10.1925 15.4014 10.3636 15.4014Z" fill="#C6A1CF"/>
</svg>
